999
dxfrw 0.5.11
0
SECTION
2
HEADER
9
$ACADVER
1
AC1021
9
$HANDSEED
5
20000
9
$DWGCODEPAGE
3
ANSI_1252
9
$INSBASE
10
0
20
0
30
0
9
$EXTMIN
10
-18.0000089307
20
77.781936184
30
0
9
$EXTMAX
10
17.1931955028
20
147.349860125
30
0
9
$LIMMIN
10
0
20
0
9
$LIMMAX
10
420
20
297
9
$ORTHOMODE
70
0
9
$LTSCALE
40
1
9
$TEXTSTYLE
7
STANDARD
9
$CLAYER
8
lamp-back
9
$DIMASZ
40
2.5
9
$DIMLFAC
40
1
9
$DIMSCALE
40
1
9
$DIMEXO
40
0.625
9
$DIMEXE
40
1.25
9
$DIMTXT
40
2.5
9
$DIMTSZ
40
0
9
$DIMAUNIT
70
0
9
$DIMADEC
70
0
9
$DIMLUNIT
70
2
9
$DIMSTYLE
2
STANDARD
9
$DIMGAP
40
0.625
9
$DIMTIH
70
0
9
$LUNITS
70
2
9
$LUPREC
70
4
9
$AUNITS
70
0
9
$AUPREC
70
2
9
$SPLINESEGS
70
8
9
$GRIDMODE
70
1
9
$SNAPSTYLE
70
0
9
$PINSBASE
10
0
20
0
30
0
9
$PLIMMIN
10
0
20
0
9
$PLIMMAX
10
210
20
297
9
$INSUNITS
70
0
9
$PSVPSCALE
40
1
0
ENDSEC
0
SECTION
2
CLASSES
0
ENDSEC
0
SECTION
2
TABLES
0
TABLE
2
VPORT
5
8
330
0
100
AcDbSymbolTable
70
1
0
VPORT
5
31
330
2
100
AcDbSymbolTableRecord
100
AcDbViewportTableRecord
2
*ACTIVE
70
0
10
0
20
0
11
1
21
1
12
57.7542194828
22
75.5394592572
13
0
23
0
14
10
24
10
15
10
25
10
16
0
26
0
36
1
17
0
27
0
37
0
40
96.3845252295
41
1.85119047619
42
50
43
0
44
0
50
0
51
0
71
0
72
100
73
1
74
3
75
0
76
1
77
0
78
0
281
0
65
1
110
0
120
0
130
0
111
1
121
0
131
0
112
0
122
1
132
0
79
0
146
0
348
10020
60
7
61
5
292
1
282
1
141
0
142
0
63
250
421
3358443
0
ENDTAB
0
TABLE
2
LTYPE
5
5
330
0
100
AcDbSymbolTable
70
4
0
LTYPE
5
14
330
5
100
AcDbSymbolTableRecord
100
AcDbLinetypeTableRecord
2
ByBlock
70
0
3

72
65
73
0
40
0
0
LTYPE
5
15
330
5
100
AcDbSymbolTableRecord
100
AcDbLinetypeTableRecord
2
ByLayer
70
0
3

72
65
73
0
40
0
0
LTYPE
5
16
330
5
100
AcDbSymbolTableRecord
100
AcDbLinetypeTableRecord
2
Continuous
70
0
3
Solid line
72
65
73
0
40
0
0
LTYPE
5
32
330
5
100
AcDbSymbolTableRecord
100
AcDbLinetypeTableRecord
2
DOT
70
0
3
Dot . . . . . . . . . . . . . . . . . . . . . .
72
65
73
2
40
6.35
49
0
74
0
49
-6.35
74
0
0
LTYPE
5
33
330
5
100
AcDbSymbolTableRecord
100
AcDbLinetypeTableRecord
2
DOT2
70
0
3
Dot (.5x) .....................................
72
65
73
2
40
3.175
49
0
74
0
49
-3.175
74
0
0
LTYPE
5
34
330
5
100
AcDbSymbolTableRecord
100
AcDbLinetypeTableRecord
2
DOTX2
70
0
3
Dot (2x) .  .  .  .  .  .  .  .  .  .  .  .  .
72
65
73
2
40
12.7
49
0
74
0
49
-12.7
74
0
0
LTYPE
5
35
330
5
100
AcDbSymbolTableRecord
100
AcDbLinetypeTableRecord
2
DASHED
70
0
3
Dot . . . . . . . . . . . . . . . . . . . . . .
72
65
73
2
40
19.05
49
12.7
74
0
49
-6.35
74
0
0
LTYPE
5
36
330
5
100
AcDbSymbolTableRecord
100
AcDbLinetypeTableRecord
2
DASHED2
70
0
3
Dashed (.5x) _ _ _ _ _ _ _ _ _ _ _ _ _ _ _ _ _
72
65
73
2
40
9.525
49
6.35
74
0
49
-3.175
74
0
0
LTYPE
5
37
330
5
100
AcDbSymbolTableRecord
100
AcDbLinetypeTableRecord
2
DASHEDX2
70
0
3
Dashed (2x) ____  ____  ____  ____  ____  ___
72
65
73
2
40
38.1
49
25.4
74
0
49
-12.7
74
0
0
LTYPE
5
38
330
5
100
AcDbSymbolTableRecord
100
AcDbLinetypeTableRecord
2
DASHDOT
70
0
3
Dash dot __ . __ . __ . __ . __ . __ . __ . __
72
65
73
4
40
25.4
49
12.7
74
0
49
-6.35
74
0
49
0
74
0
49
-6.35
74
0
0
LTYPE
5
39
330
5
100
AcDbSymbolTableRecord
100
AcDbLinetypeTableRecord
2
DASHDOT2
70
0
3
Dash dot (.5x) _._._._._._._._._._._._._._._.
72
65
73
4
40
12.7
49
6.35
74
0
49
-3.175
74
0
49
0
74
0
49
-3.175
74
0
0
LTYPE
5
3A
330
5
100
AcDbSymbolTableRecord
100
AcDbLinetypeTableRecord
2
DASHDOTX2
70
0
3
Dash dot (2x) ____  .  ____  .  ____  .  ___
72
65
73
4
40
50.8
49
25.4
74
0
49
-12.7
74
0
49
0
74
0
49
-12.7
74
0
0
LTYPE
5
3B
330
5
100
AcDbSymbolTableRecord
100
AcDbLinetypeTableRecord
2
DIVIDE
70
0
3
Divide ____ . . ____ . . ____ . . ____ . . ____
72
65
73
6
40
31.75
49
12.7
74
0
49
-6.35
74
0
49
0
74
0
49
-6.35
74
0
49
0
74
0
49
-6.35
74
0
0
LTYPE
5
3C
330
5
100
AcDbSymbolTableRecord
100
AcDbLinetypeTableRecord
2
DIVIDE2
70
0
3
Divide (.5x) __..__..__..__..__..__..__..__.._
72
65
73
6
40
15.875
49
6.35
74
0
49
-3.175
74
0
49
0
74
0
49
-3.175
74
0
49
0
74
0
49
-3.175
74
0
0
LTYPE
5
3D
330
5
100
AcDbSymbolTableRecord
100
AcDbLinetypeTableRecord
2
DIVIDEX2
70
0
3
Divide (2x) ________  .  .  ________  .  .  _
72
65
73
6
40
63.5
49
25.4
74
0
49
-12.7
74
0
49
0
74
0
49
-12.7
74
0
49
0
74
0
49
-12.7
74
0
0
LTYPE
5
3E
330
5
100
AcDbSymbolTableRecord
100
AcDbLinetypeTableRecord
2
BORDER
70
0
3
Border __ __ . __ __ . __ __ . __ __ . __ __ .
72
65
73
6
40
44.45
49
12.7
74
0
49
-6.35
74
0
49
12.7
74
0
49
-6.35
74
0
49
0
74
0
49
-6.35
74
0
0
LTYPE
5
3F
330
5
100
AcDbSymbolTableRecord
100
AcDbLinetypeTableRecord
2
BORDER2
70
0
3
Border (.5x) __.__.__.__.__.__.__.__.__.__.__.
72
65
73
6
40
22.225
49
6.35
74
0
49
-3.175
74
0
49
6.35
74
0
49
-3.175
74
0
49
0
74
0
49
-3.175
74
0
0
LTYPE
5
40
330
5
100
AcDbSymbolTableRecord
100
AcDbLinetypeTableRecord
2
BORDERX2
70
0
3
Border (2x) ____  ____  .  ____  ____  .  ___
72
65
73
6
40
88.9
49
25.4
74
0
49
-12.7
74
0
49
25.4
74
0
49
-12.7
74
0
49
0
74
0
49
-12.7
74
0
0
LTYPE
5
41
330
5
100
AcDbSymbolTableRecord
100
AcDbLinetypeTableRecord
2
CENTER
70
0
3
Center ____ _ ____ _ ____ _ ____ _ ____ _ ____
72
65
73
4
40
50.8
49
31.75
74
0
49
-6.35
74
0
49
6.35
74
0
49
-6.35
74
0
0
LTYPE
5
42
330
5
100
AcDbSymbolTableRecord
100
AcDbLinetypeTableRecord
2
CENTER2
70
0
3
Center (.5x) ___ _ ___ _ ___ _ ___ _ ___ _ ___
72
65
73
4
40
28.575
49
19.05
74
0
49
-3.175
74
0
49
3.175
74
0
49
-3.175
74
0
0
LTYPE
5
43
330
5
100
AcDbSymbolTableRecord
100
AcDbLinetypeTableRecord
2
CENTERX2
70
0
3
Center (2x) ________  __  ________  __  _____
72
65
73
4
40
101.6
49
63.5
74
0
49
-12.7
74
0
49
12.7
74
0
49
-12.7
74
0
0
ENDTAB
0
TABLE
2
LAYER
5
2
330
0
100
AcDbSymbolTable
70
1
0
LAYER
5
10
330
2
100
AcDbSymbolTableRecord
100
AcDbLayerTableRecord
2
0
70
5
62
7
6
CONTINUOUS
370
0
390
F
0
LAYER
5
44
330
2
100
AcDbSymbolTableRecord
100
AcDbLayerTableRecord
2
1
70
5
62
7
6
CONTINUOUS
370
0
390
F
0
LAYER
5
45
330
2
100
AcDbSymbolTableRecord
100
AcDbLayerTableRecord
2
2-axis
70
5
62
7
6
CONTINUOUS
370
0
390
F
0
LAYER
5
46
330
2
100
AcDbSymbolTableRecord
100
AcDbLayerTableRecord
2
back-elec
70
5
62
7
6
CONTINUOUS
370
0
390
F
0
LAYER
5
47
330
2
100
AcDbSymbolTableRecord
100
AcDbLayerTableRecord
2
disque
70
1
62
7
6
CONTINUOUS
370
0
390
F
0
LAYER
5
48
330
2
100
AcDbSymbolTableRecord
100
AcDbLayerTableRecord
2
fixation-axe
70
5
62
7
6
CONTINUOUS
370
0
390
F
0
LAYER
5
49
330
2
100
AcDbSymbolTableRecord
100
AcDbLayerTableRecord
2
fixation-axe2
70
1
62
7
6
CONTINUOUS
370
0
390
F
0
LAYER
5
4A
330
2
100
AcDbSymbolTableRecord
100
AcDbLayerTableRecord
2
fixation-repere
70
1
62
7
6
CONTINUOUS
370
0
390
F
0
LAYER
5
4B
330
2
100
AcDbSymbolTableRecord
100
AcDbLayerTableRecord
2
lamp
70
1
62
7
6
CONTINUOUS
370
0
390
F
0
LAYER
5
4C
330
2
100
AcDbSymbolTableRecord
100
AcDbLayerTableRecord
2
lamp-back
70
0
62
7
6
CONTINUOUS
370
0
390
F
0
LAYER
5
4D
330
2
100
AcDbSymbolTableRecord
100
AcDbLayerTableRecord
2
screws-holes
70
5
62
7
6
CONTINUOUS
370
0
390
F
0
LAYER
5
4E
330
2
100
AcDbSymbolTableRecord
100
AcDbLayerTableRecord
2
support
70
5
62
7
6
CONTINUOUS
370
0
390
F
0
LAYER
5
4F
330
2
100
AcDbSymbolTableRecord
100
AcDbLayerTableRecord
2
support-capteur
70
5
62
7
6
CONTINUOUS
370
0
390
F
0
LAYER
5
50
330
2
100
AcDbSymbolTableRecord
100
AcDbLayerTableRecord
2
support-capteur2
70
1
62
7
6
CONTINUOUS
370
0
390
F
0
LAYER
5
51
330
2
100
AcDbSymbolTableRecord
100
AcDbLayerTableRecord
2
support-front
70
1
62
7
6
CONTINUOUS
370
0
390
F
0
LAYER
5
52
330
2
100
AcDbSymbolTableRecord
100
AcDbLayerTableRecord
2
support-front2-Cotes
70
1
62
7
6
CONTINUOUS
370
0
390
F
0
ENDTAB
0
TABLE
2
STYLE
5
3
330
0
100
AcDbSymbolTable
70
3
0
STYLE
5
53
330
2
100
AcDbSymbolTableRecord
100
AcDbTextStyleTableRecord
2
Standard
70
0
40
0
41
1
50
0
71
0
42
1
3
txt
4

0
ENDTAB
0
TABLE
2
VIEW
5
6
330
0
100
AcDbSymbolTable
70
0
0
ENDTAB
0
TABLE
2
UCS
5
7
330
0
100
AcDbSymbolTable
70
0
0
ENDTAB
0
TABLE
2
APPID
5
9
330
0
100
AcDbSymbolTable
70
1
0
APPID
5
12
330
9
100
AcDbSymbolTableRecord
100
AcDbRegAppTableRecord
2
ACAD
70
0
0
ENDTAB
0
TABLE
2
DIMSTYLE
5
A
330
0
100
AcDbSymbolTable
70
1
100
AcDbDimStyleTable
71
1
0
DIMSTYLE
105
54
330
A
100
AcDbSymbolTableRecord
100
AcDbDimStyleTableRecord
2
Standard
70
0
40
1
41
2.5
42
0.625
43
0.38
44
1.25
45
0
46
0
47
0
48
0
140
2.5
141
0.09
142
0
143
25.4
144
1
145
0
146
1
147
0.625
148
0
71
0
72
0
73
0
74
1
75
0
76
0
77
0
78
0
79
0
170
0
171
2
172
0
173
0
174
0
175
0
176
0
177
0
178
0
179
0
271
4
272
4
273
2
274
2
275
0
276
0
277
2
278
46
279
0
280
0
281
0
282
0
283
1
284
0
285
0
286
0
288
0
289
3
340
Standard
341

371
-2
372
-2
0
ENDTAB
0
TABLE
2
BLOCK_RECORD
5
1
330
0
100
AcDbSymbolTable
70
2
0
BLOCK_RECORD
5
1F
330
1
100
AcDbSymbolTableRecord
100
AcDbBlockTableRecord
2
*Model_Space
70
0
280
1
281
0
0
BLOCK_RECORD
5
1E
330
1
100
AcDbSymbolTableRecord
100
AcDbBlockTableRecord
2
*Paper_Space
70
0
280
1
281
0
0
BLOCK_RECORD
5
55
330
1
100
AcDbSymbolTableRecord
100
AcDbBlockTableRecord
2
*D1
70
0
280
1
281
0
0
ENDTAB
0
ENDSEC
0
SECTION
2
BLOCKS
0
BLOCK
5
20
330
1F
100
AcDbEntity
8
0
100
AcDbBlockBegin
2
*Model_Space
70
0
10
0
20
0
30
0
3
*Model_Space
1

0
ENDBLK
5
21
330
1F
100
AcDbEntity
8
0
100
AcDbBlockEnd
0
BLOCK
5
1C
330
1B
100
AcDbEntity
8
0
100
AcDbBlockBegin
2
*Paper_Space
70
0
10
0
20
0
30
0
3
*Paper_Space
1

0
ENDBLK
5
1D
330
1F
100
AcDbEntity
8
0
100
AcDbBlockEnd
0
BLOCK
5
56
330
55
100
AcDbEntity
8
0
100
AcDbBlockBegin
2
*D1
70
1
10
0
20
0
3
*D1
1

0
LINE
5
58
100
AcDbEntity
8
support-front2-Cotes
6
CONTINUOUS
62
7
370
0
100
AcDbLine
10
-1.06084030449e-11
20
-13.4255203706
11
14.8471621201
21
-13.4255203706
0
SOLID
5
59
100
AcDbEntity
8
support-front2-Cotes
6
CONTINUOUS
62
7
370
0
100
AcDbTrace
10
-1.06084030449e-11
20
-13.4255203706
30
0
11
2.49999999999
21
-13.0092357128
31
0
12
2.49999999999
22
-13.8418050284
32
0
13
2.49999999999
23
-13.8418050284
33
0
0
SOLID
5
5A
100
AcDbEntity
8
support-front2-Cotes
6
CONTINUOUS
62
7
370
0
100
AcDbTrace
10
14.8471621201
20
-13.4255203706
30
0
11
12.3471621201
21
-13.8418050284
31
0
12
12.3471621201
22
-13.0092357128
32
0
13
12.3471621201
23
-13.0092357128
33
0
0
MTEXT
5
5B
100
AcDbEntity
8
support-front2-Cotes
6
CONTINUOUS
62
7
370
0
100
AcDbMText
10
7.42358106005
20
-11.5505203706
30
0
40
2.5
41
11.6666666667
71
5
72
1
1
14.8472
7
standard
210
0
220
0
230
1
50
0
73
2
44
1
0
LINE
5
5C
100
AcDbEntity
8
support-front2-Cotes
6
CONTINUOUS
62
7
370
0
100
AcDbLine
10
-1.06076296771e-11
20
-0.625
11
-1.06086326662e-11
21
-14.6755203706
0
LINE
5
5D
100
AcDbEntity
8
support-front2-Cotes
6
CONTINUOUS
62
7
370
0
100
AcDbLine
10
14.8471621201
20
-5.25080645156
11
14.8471621201
21
-14.6755203706
0
ENDBLK
5
57
330
55
100
AcDbEntity
8
0
100
AcDbBlockEnd
0
ENDSEC
0
SECTION
2
ENTITIES
0
ARC
5
5E
100
AcDbEntity
8
0
6
ByLayer
62
256
370
-1
100
AcDbCircle
10
0
20
0
40
7.75
100
AcDbArc
50
129.268026002
51
230.731973998
0
LINE
5
5F
100
AcDbEntity
8
0
6
ByLayer
62
256
370
-1
100
AcDbLine
10
-4.90535421759
20
-6
11
4.90535421759
21
-6
0
LINE
5
60
100
AcDbEntity
8
0
6
ByLayer
62
256
370
-1
100
AcDbLine
10
-4.90535421759
20
6
11
4.90535421759
21
6
0
ARC
5
61
100
AcDbEntity
8
0
6
ByLayer
62
256
370
-1
100
AcDbCircle
10
0
20
0
40
7.75
100
AcDbArc
50
309.268026002
51
50.7319739982
0
CIRCLE
5
62
100
AcDbEntity
8
1
6
ByLayer
62
256
370
-1
100
AcDbCircle
10
0
20
0
40
2.85
0
CIRCLE
5
63
100
AcDbEntity
8
2-axis
6
ByLayer
62
256
370
-1
100
AcDbCircle
10
0
20
0
40
0.75
0
CIRCLE
5
64
100
AcDbEntity
8
screws-holes
6
ByLayer
62
256
370
-1
100
AcDbCircle
10
-7.34788079488e-16
20
-4
40
0.8
0
LINE
5
65
100
AcDbEntity
8
back-elec
6
ByLayer
62
256
370
-1
100
AcDbLine
10
-6.45
20
-1
11
-6.45
21
1
0
LINE
5
66
100
AcDbEntity
8
back-elec
6
ByLayer
62
256
370
-1
100
AcDbLine
10
-6.05
20
-1
11
-6.05
21
1
0
LINE
5
67
100
AcDbEntity
8
back-elec
6
ByLayer
62
256
370
-1
100
AcDbLine
10
6.05
20
-1
11
6.05
21
1
0
LINE
5
68
100
AcDbEntity
8
back-elec
6
ByLayer
62
256
370
-1
100
AcDbLine
10
6.45
20
-1
11
6.45
21
1
0
LINE
5
69
100
AcDbEntity
8
back-elec
6
ByLayer
62
256
370
-1
100
AcDbLine
10
-6.45
20
1
11
-6.05
21
1
0
LINE
5
6A
100
AcDbEntity
8
back-elec
6
ByLayer
62
256
370
-1
100
AcDbLine
10
6.05
20
1
11
6.45
21
1
0
LINE
5
6B
100
AcDbEntity
8
back-elec
6
ByLayer
62
256
370
-1
100
AcDbLine
10
6.05
20
-1
11
6.45
21
-1
0
LINE
5
6C
100
AcDbEntity
8
back-elec
6
ByLayer
62
256
370
-1
100
AcDbLine
10
-6.45
20
-1
11
-6.05
21
-1
0
CIRCLE
5
6D
100
AcDbEntity
8
screws-holes
6
ByLayer
62
256
370
-1
100
AcDbCircle
10
-4.33012701892
20
-2.5
40
1
0
CIRCLE
5
6E
100
AcDbEntity
8
screws-holes
6
ByLayer
62
256
370
-1
100
AcDbCircle
10
4.33012701892
20
2.50000000001
40
1
0
ARC
5
6F
100
AcDbEntity
8
support
6
ByLayer
62
256
370
-1
100
AcDbCircle
10
0
20
0
40
7.85
100
AcDbArc
50
129.268026002
51
230.731973998
0
LINE
5
70
100
AcDbEntity
8
support
6
ByLayer
62
256
370
-1
100
AcDbLine
10
-4.96864911074
20
-6.07741935482
11
4.96864911074
21
-6.07741935482
0
LINE
5
71
100
AcDbEntity
8
support
6
ByLayer
62
256
370
-1
100
AcDbLine
10
-4.96864911074
20
6.07741935482
11
4.96864911072
21
6.07741935483
0
LINE
5
72
100
AcDbEntity
8
support
6
ByLayer
62
256
370
-1
100
AcDbLine
10
-6.23454697335
20
7.62580645159
11
6.23454697333
21
7.62580645161
0
ARC
5
73
100
AcDbEntity
8
support
6
ByLayer
62
256
370
-1
100
AcDbCircle
10
-11.8443242402
20
-2.62580645159
40
2
100
AcDbArc
50
270
51
0
0
LINE
5
74
100
AcDbEntity
8
support
6
ByLayer
62
256
370
-1
100
AcDbLine
10
-17.85
20
-4.62580645159
11
-11.8443242402
21
-4.62580645159
0
LINE
5
75
100
AcDbEntity
8
support
6
ByLayer
62
256
370
-1
100
AcDbLine
10
-17.85
20
-4.62580645159
11
-17.85
21
-7.62580645159
0
ARC
5
76
100
AcDbEntity
8
support
6
ByLayer
62
256
370
-1
100
AcDbCircle
10
0
20
0
40
9.85
100
AcDbArc
50
129.268026002
51
178.054853239
0
LINE
5
77
100
AcDbEntity
8
support
6
ByLayer
62
256
370
-1
100
AcDbLine
10
-9.84432424022
20
-0.334335540234
11
-9.84432424022
21
-2.62580645159
0
LINE
5
78
100
AcDbEntity
8
support
6
ByLayer
62
256
370
-1
100
AcDbLine
10
-9.84432424022
20
0.334335540234
11
-9.84432424022
21
-0.334335540234
0
ARC
5
79
100
AcDbEntity
8
support
6
ByLayer
62
256
370
-1
100
AcDbCircle
10
-1.06075148665e-11
20
-1.7763568394e-15
40
7.85
100
AcDbArc
50
309.268026002
51
50.7319739981
0
ARC
5
7A
100
AcDbEntity
8
support
6
ByLayer
62
256
370
-1
100
AcDbCircle
10
11.8443242402
20
-2.62580645157
40
2
100
AcDbArc
50
180
51
270
0
LINE
5
7B
100
AcDbEntity
8
support
6
ByLayer
62
256
370
-1
100
AcDbLine
10
17.85
20
-4.62580645155
11
11.8443242402
21
-4.62580645157
0
ARC
5
7C
100
AcDbEntity
8
support
6
ByLayer
62
256
370
-1
100
AcDbCircle
10
-1.06075148665e-11
20
-1.7763568394e-15
40
9.85
100
AcDbArc
50
1.94514676151
51
50.7319739981
0
LINE
5
7D
100
AcDbEntity
8
support
6
ByLayer
62
256
370
-1
100
AcDbLine
10
9.84432424021
20
-0.334335540217
11
9.84432424021
21
-2.62580645157
0
LINE
5
7E
100
AcDbEntity
8
support
6
ByLayer
62
256
370
-1
100
AcDbLine
10
9.84432424021
20
0.334335540251
11
9.84432424021
21
-0.334335540217
0
LINE
5
7F
100
AcDbEntity
8
support
6
ByLayer
62
256
370
-1
100
AcDbLine
10
-17.85
20
-7.62580645159
11
17.85
21
-7.62580645159
0
LINE
5
80
100
AcDbEntity
8
support
6
ByLayer
62
256
370
-1
100
AcDbLine
10
17.85
20
-4.62580645155
11
17.85
21
-7.62580645159
0
LINE
5
81
100
AcDbEntity
8
support-front
6
ByLayer
62
256
370
-1
100
AcDbLine
10
-11.8443242402
20
-4.62580645159
11
-17.85
21
-4.62580645159
0
LINE
5
82
100
AcDbEntity
8
support-front
6
ByLayer
62
256
370
-1
100
AcDbLine
10
-17.85
20
-4.62580645159
11
-17.85
21
-7.62580645159
0
LINE
5
83
100
AcDbEntity
8
support-front
6
ByLayer
62
256
370
-1
100
AcDbLine
10
-17.85
20
-7.62580645159
11
17.85
21
-7.62580645159
0
LINE
5
84
100
AcDbEntity
8
support-front
6
ByLayer
62
256
370
-1
100
AcDbLine
10
17.85
20
-7.62580645159
11
17.85
21
-4.62580645155
0
LINE
5
85
100
AcDbEntity
8
support-front
6
ByLayer
62
256
370
-1
100
AcDbLine
10
17.85
20
-4.62580645155
11
11.8443242402
21
-4.62580645157
0
LINE
5
86
100
AcDbEntity
8
1
6
ByLayer
62
256
370
-1
100
AcDbLine
10
-6.23454697335
20
7.62580645159
11
6.23454697333
21
7.62580645161
0
LINE
5
87
100
AcDbEntity
8
support-front
6
ByLayer
62
256
370
-1
100
AcDbLine
10
9.84432424021
20
-2.62580661206
11
9.84432424021
21
1.71811453953e-11
0
ARC
5
88
100
AcDbEntity
8
support-front
6
ByLayer
62
256
370
-1
100
AcDbCircle
10
-1.06075148665e-11
20
-1.7763568394e-15
40
9.84432424021
100
AcDbArc
50
129.268026002
51
180
0
ARC
5
89
100
AcDbEntity
8
support-front
6
ByLayer
62
256
370
-1
100
AcDbCircle
10
-1.06075148665e-11
20
-1.7763568394e-15
40
9.84432424022
100
AcDbArc
50
9.99966391852e-11
51
50.7319739982
0
ARC
5
8A
100
AcDbEntity
8
support-front
6
ByLayer
62
256
370
-1
100
AcDbCircle
10
-11.8443242402
20
-2.62580658487
40
2
100
AcDbArc
50
270
51
360
0
ARC
5
8B
100
AcDbEntity
8
support-front
6
ByLayer
62
256
370
-1
100
AcDbCircle
10
11.8443242402
20
-2.62580661206
40
2
100
AcDbArc
50
180
51
270
0
LINE
5
8C
100
AcDbEntity
8
support-front
6
ByLayer
62
256
370
-1
100
AcDbLine
10
-9.84432424022
20
3.80098335099e-15
11
-9.84432424022
21
-2.62580658487
0
CIRCLE
5
8D
100
AcDbEntity
8
1
6
ByLayer
62
256
370
-1
100
AcDbCircle
10
-4.33012701892
20
-2.5
40
1
0
CIRCLE
5
8E
100
AcDbEntity
8
1
6
ByLayer
62
256
370
-1
100
AcDbCircle
10
4.33012701892
20
2.50000000001
40
1
0
CIRCLE
5
8F
100
AcDbEntity
8
1
6
ByLayer
62
256
370
-1
100
AcDbCircle
10
0
20
0
40
1.06075150152e-11
0
CIRCLE
5
90
100
AcDbEntity
8
support-front
6
ByLayer
62
256
370
-1
100
AcDbCircle
10
1.85121072622e-23
20
-1.06075150152e-11
40
2.85000000001
0
CIRCLE
5
91
100
AcDbEntity
8
support-front
6
ByLayer
62
256
370
-1
100
AcDbCircle
10
4.33012701892
20
2.50000000001
40
1
0
CIRCLE
5
92
100
AcDbEntity
8
support-front
6
ByLayer
62
256
370
-1
100
AcDbCircle
10
-4.33012701892
20
-2.5
40
1
0
LINE
5
93
100
AcDbEntity
8
support-front
6
ByLayer
62
256
370
-1
100
AcDbLine
10
-6.23095450726
20
7.62141231498
11
6.23095450723
21
7.621412315
0
DIMENSION
5
94
100
AcDbEntity
8
support-front2-Cotes
6
ByLayer
62
256
370
-1
100
AcDbDimension
2
*D1
10
14.8471621201
20
-13.4255203706
30
0
11
7.42358106005
21
-11.5505203706
31
0
70
32
71
5
72
0
3
Standard
53
0
210
0
220
0
230
1
100
AcDbAlignedDimension
13
-1.06075148665e-11
23
-1.7763568394e-15
33
0
14
14.8471621201
24
-4.62580645156
34
0
100
AcDbRotatedDimension
0
LINE
5
95
100
AcDbEntity
8
support-capteur
6
ByLayer
62
256
370
-1
100
AcDbLine
10
9.37607165856
20
3
11
9.37607165856
21
-3
0
LINE
5
96
100
AcDbEntity
8
support-capteur
6
ByLayer
62
256
370
-1
100
AcDbLine
10
9.37607165856
20
3
11
164.969996999
21
3
0
LINE
5
97
100
AcDbEntity
8
support-capteur
6
ByLayer
62
256
370
-1
100
AcDbLine
10
164.969996999
20
-3
11
164.969996999
21
3
0
LINE
5
98
100
AcDbEntity
8
support-capteur
6
ByLayer
62
256
370
-1
100
AcDbLine
10
9.37607165856
20
-3
11
10
21
-6
0
LINE
5
99
100
AcDbEntity
8
support-capteur
6
ByLayer
62
256
370
-1
100
AcDbLine
10
10
20
-6
11
17
21
-7
0
LINE
5
9A
100
AcDbEntity
8
support-capteur
6
ByLayer
62
256
370
-1
100
AcDbLine
10
17
20
-7
11
23.965555766
21
-3
0
LINE
5
9B
100
AcDbEntity
8
support-capteur
6
ByLayer
62
256
370
-1
100
AcDbLine
10
23.965555766
20
-3
11
164.969996999
21
-3
0
LINE
5
9C
100
AcDbEntity
8
support-capteur2
6
ByLayer
62
256
370
-1
100
AcDbLine
10
162.969996999
20
-3
11
163.969996999
21
-3
0
LINE
5
9D
100
AcDbEntity
8
support-capteur2
6
ByLayer
62
256
370
-1
100
AcDbLine
10
164.969996999
20
2
11
164.969996999
21
-2
0
LINE
5
9E
100
AcDbEntity
8
support-capteur2
6
ByLayer
62
256
370
-1
100
AcDbLine
10
163.969996999
20
3
11
162.969996999
21
3
0
LINE
5
9F
100
AcDbEntity
8
support-capteur2
6
ByLayer
62
256
370
-1
100
AcDbLine
10
161.969996999
20
2
11
161.969996999
21
-2
0
ARC
5
A0
100
AcDbEntity
8
support-capteur2
6
ByLayer
62
256
370
-1
100
AcDbCircle
10
162.969996999
20
2
40
1
100
AcDbArc
50
90
51
180
0
ARC
5
A1
100
AcDbEntity
8
support-capteur2
6
ByLayer
62
256
370
-1
100
AcDbCircle
10
163.969996999
20
2
40
1
100
AcDbArc
50
360
51
90
0
ARC
5
A2
100
AcDbEntity
8
support-capteur2
6
ByLayer
62
256
370
-1
100
AcDbCircle
10
162.969996999
20
-2
40
1
100
AcDbArc
50
180
51
270
0
ARC
5
A3
100
AcDbEntity
8
support-capteur2
6
ByLayer
62
256
370
-1
100
AcDbCircle
10
163.969996999
20
-2
40
1
100
AcDbArc
50
270
51
0
0
ARC
5
A4
100
AcDbEntity
8
disque
6
ByLayer
62
256
370
-1
100
AcDbCircle
10
0
20
0
40
150
100
AcDbArc
50
91.1459919984
51
450
0
LINE
5
A5
100
AcDbEntity
8
disque
6
ByLayer
62
256
370
-1
100
AcDbLine
10
-3
20
146.849858162
11
-3
21
149.969996999
0
LINE
5
A6
100
AcDbEntity
8
disque
6
ByLayer
62
256
370
-1
100
AcDbLine
10
-3
20
146.849858162
11
0
21
146.849858162
0
LINE
5
A7
100
AcDbEntity
8
disque
6
ByLayer
62
256
370
-1
100
AcDbLine
10
0
20
146.849858162
11
0
21
150
0
CIRCLE
5
A8
100
AcDbEntity
8
disque
6
ByLayer
62
256
370
-1
100
AcDbCircle
10
-1.79826553646e-06
20
143.849858162
40
1
0
CIRCLE
5
A9
100
AcDbEntity
8
disque
6
ByLayer
62
256
370
-1
100
AcDbCircle
10
29.4922438527
20
138.750098425
40
1
0
CIRCLE
5
AA
100
AcDbEntity
8
disque
6
ByLayer
62
256
370
-1
100
AcDbCircle
10
56.8820618434
20
127.759202676
40
1
0
CIRCLE
5
AB
100
AcDbEntity
8
disque
6
ByLayer
62
256
370
-1
100
AcDbCircle
10
81.0261136581
20
111.522877925
40
1
0
CIRCLE
5
AC
100
AcDbEntity
8
disque
6
ByLayer
62
256
370
-1
100
AcDbCircle
10
100.956119135
20
90.9012979656
40
1
0
CIRCLE
5
AD
100
AcDbEntity
8
disque
6
ByLayer
62
256
370
-1
100
AcDbCircle
10
115.917377461
20
66.9249290809
40
1
0
CIRCLE
5
AE
100
AcDbEntity
8
disque
6
ByLayer
62
256
370
-1
100
AcDbCircle
10
125.396666777
20
40.7438468779
40
1
0
CIRCLE
5
AF
100
AcDbEntity
8
disque
6
ByLayer
62
256
370
-1
100
AcDbCircle
10
129.138527052
20
13.5730061292
40
1
0
CIRCLE
5
B0
100
AcDbEntity
8
disque
6
ByLayer
62
256
370
-1
100
AcDbCircle
10
127.149483262
20
-13.3639492026
40
1
0
CIRCLE
5
B1
100
AcDbEntity
8
disque
6
ByLayer
62
256
370
-1
100
AcDbCircle
10
119.69032768
20
-38.8897449117
40
1
0
CIRCLE
5
B2
100
AcDbEntity
8
disque
6
ByLayer
62
256
370
-1
100
AcDbCircle
10
107.257123423
20
-61.9249290809
40
1
0
CIRCLE
5
B3
100
AcDbEntity
8
disque
6
ByLayer
62
256
370
-1
100
AcDbCircle
10
90.5520915781
20
-81.5334694765
40
1
0
CIRCLE
5
B4
100
AcDbEntity
8
disque
6
ByLayer
62
256
370
-1
100
AcDbCircle
10
70.4459791168
20
-96.9605720263
40
1
0
CIRCLE
5
B5
100
AcDbEntity
8
disque
6
ByLayer
62
256
370
-1
100
AcDbCircle
10
47.9338556957
20
-107.661202608
40
1
0
CIRCLE
5
B6
100
AcDbEntity
8
disque
6
ByLayer
62
256
370
-1
100
AcDbCircle
10
24.0865398914
20
-113.318260806
40
1
0
CIRCLE
5
B7
100
AcDbEntity
8
disque
6
ByLayer
62
256
370
-1
100
AcDbCircle
10
-1.39425864381e-14
20
-113.849858162
40
1
0
CIRCLE
5
B8
100
AcDbEntity
8
disque
6
ByLayer
62
256
370
-1
100
AcDbCircle
10
-23.2548931281
20
-109.405670403
40
1
0
CIRCLE
5
B9
100
AcDbEntity
8
disque
6
ByLayer
62
256
370
-1
100
AcDbCircle
10
-44.6799625511
20
-100.352838946
40
1
0
CIRCLE
5
BA
100
AcDbEntity
8
disque
6
ByLayer
62
256
370
-1
100
AcDbCircle
10
-63.3925560893
20
-87.2523680938
40
1
0
CIRCLE
5
BB
100
AcDbEntity
8
disque
6
ByLayer
62
256
370
-1
100
AcDbCircle
10
-78.6617743704
20
-70.8273797748
40
1
0
CIRCLE
5
BC
100
AcDbEntity
8
disque
6
ByLayer
62
256
370
-1
100
AcDbCircle
10
-89.9366153475
20
-51.9249290809
40
1
0
CIRCLE
5
BD
100
AcDbEntity
8
disque
6
ByLayer
62
256
370
-1
100
AcDbCircle
10
-96.8649712885
20
-31.4733370467
40
1
0
CIRCLE
5
BE
100
AcDbEntity
8
disque
6
ByLayer
62
256
370
-1
100
AcDbCircle
10
-99.3028701913
20
-10.4371522311
40
1
0
CIRCLE
5
BF
100
AcDbEntity
8
disque
6
ByLayer
62
256
370
-1
100
AcDbCircle
10
-97.3138264006
20
10.2280953046
40
1
0
CIRCLE
5
C0
100
AcDbEntity
8
disque
6
ByLayer
62
256
370
-1
100
AcDbCircle
10
-91.1586321907
20
29.6192350804
40
1
0
CIRCLE
5
C1
100
AcDbEntity
8
disque
6
ByLayer
62
256
370
-1
100
AcDbCircle
10
-81.2763613097
20
46.9249290809
40
1
0
CIRCLE
5
C2
100
AcDbEntity
8
disque
6
ByLayer
62
256
370
-1
100
AcDbCircle
10
-68.2577468138
20
61.4595512858
40
1
0
CIRCLE
5
C3
100
AcDbEntity
8
disque
6
ByLayer
62
256
370
-1
100
AcDbCircle
10
-52.8124215481
20
72.6900621951
40
1
0
CIRCLE
5
C4
100
AcDbEntity
8
disque
6
ByLayer
62
256
370
-1
100
AcDbCircle
10
-35.7317564034
20
80.2548388782
40
1
0
CIRCLE
5
C5
100
AcDbEntity
8
disque
6
ByLayer
62
256
370
-1
100
AcDbCircle
10
-17.8491891669
20
83.9738327843
40
1
0
CIRCLE
5
C6
100
AcDbEntity
8
fixation-axe
6
ByLayer
62
256
370
-1
100
AcDbCircle
10
0
20
0
40
0.8
0
LINE
5
C7
100
AcDbEntity
8
fixation-axe
6
ByLayer
62
256
370
-1
100
AcDbLine
10
-2.8
20
4
11
-2.8
21
6.5
0
LINE
5
C8
100
AcDbEntity
8
fixation-axe
6
ByLayer
62
256
370
-1
100
AcDbLine
10
2.8
20
6.5
11
-2.8
21
6.5
0
CIRCLE
5
C9
100
AcDbEntity
8
fixation-repere
6
ByLayer
62
256
370
-1
100
AcDbCircle
10
0
20
0
40
3.8
0
LINE
5
CA
100
AcDbEntity
8
fixation-axe
6
ByLayer
62
256
370
-1
100
AcDbLine
10
2.8
20
4
11
2.8
21
6.5
0
LINE
5
CB
100
AcDbEntity
8
fixation-axe
6
ByLayer
62
256
370
-1
100
AcDbLine
10
2.8
20
4
11
-2.8
21
4
0
CIRCLE
5
CC
100
AcDbEntity
8
fixation-axe
6
ByLayer
62
256
370
-1
100
AcDbCircle
10
0
20
0
40
9.90403957989
0
LINE
5
CD
100
AcDbEntity
8
fixation-axe
6
ByLayer
62
256
370
-1
100
AcDbLine
10
-2.8
20
-4
11
-2.8
21
-6.5
0
LINE
5
CE
100
AcDbEntity
8
fixation-axe
6
ByLayer
62
256
370
-1
100
AcDbLine
10
2.8
20
-6.5
11
-2.8
21
-6.5
0
LINE
5
CF
100
AcDbEntity
8
fixation-axe
6
ByLayer
62
256
370
-1
100
AcDbLine
10
2.8
20
-4
11
2.8
21
-6.5
0
LINE
5
D0
100
AcDbEntity
8
fixation-axe
6
ByLayer
62
256
370
-1
100
AcDbLine
10
2.8
20
-4
11
-2.8
21
-4
0
CIRCLE
5
D1
100
AcDbEntity
8
fixation-axe2
6
ByLayer
62
256
370
-1
100
AcDbCircle
10
0
20
0
40
15.9040395799
0
CIRCLE
5
D2
100
AcDbEntity
8
fixation-axe2
6
ByLayer
62
256
370
-1
100
AcDbCircle
10
0
20
0
40
1
0
CIRCLE
5
D3
100
AcDbEntity
8
fixation-axe2
6
ByLayer
62
256
370
-1
100
AcDbCircle
10
12.9040395799
20
0
40
1.5
0
CIRCLE
5
D4
100
AcDbEntity
8
fixation-axe2
6
ByLayer
62
256
370
-1
100
AcDbCircle
10
-12.9040395799
20
0
40
1.5
0
CIRCLE
5
D5
100
AcDbEntity
8
fixation-axe2
6
ByLayer
62
256
370
-1
100
AcDbCircle
10
7.90144538379e-16
20
12.9040395799
40
1.5
0
CIRCLE
5
D6
100
AcDbEntity
8
fixation-axe2
6
ByLayer
62
256
370
-1
100
AcDbCircle
10
-7.90144538379e-16
20
-12.9040395799
40
1.5
0
LINE
5
D7
100
AcDbEntity
8
lamp
6
ByLayer
62
256
370
-1
100
AcDbLine
10
8.81696000182
20
83.8877809233
11
15.1931955028
21
144.553616621
0
LINE
5
D8
100
AcDbEntity
8
lamp
6
ByLayer
62
256
370
-1
100
AcDbLine
10
-8.81696209918
20
83.8877807029
11
-15.1931991169
21
144.553616241
0
ARC
5
D9
100
AcDbEntity
8
lamp
6
ByLayer
62
256
370
-1
100
AcDbCircle
10
0
20
0
40
84.3498581618
100
AcDbArc
50
84.0000007163
51
96.0000007163
0
ARC
5
DA
100
AcDbEntity
8
lamp
6
ByLayer
62
256
370
-1
100
AcDbCircle
10
0
20
0
40
145.349858162
100
AcDbArc
50
84.0000007163
51
96.0000007163
0
LINE
5
DB
100
AcDbEntity
8
lamp
6
ByLayer
62
256
370
-1
100
AcDbLine
10
10.8060037952
20
83.6787240217
11
17.1822392961
21
144.344559719
0
ARC
5
DC
100
AcDbEntity
8
lamp
6
ByLayer
62
256
370
-1
100
AcDbCircle
10
15.1931955028
20
144.553616621
40
2
100
AcDbArc
50
354.000000716
51
84.0000007163
0
ARC
5
DD
100
AcDbEntity
8
lamp
6
ByLayer
62
256
370
-1
100
AcDbCircle
10
0
20
0
40
147.349858162
100
AcDbArc
50
84.0000007163
51
96.0000007163
0
ARC
5
DE
100
AcDbEntity
8
lamp
6
ByLayer
62
256
370
-1
100
AcDbCircle
10
0
20
0
40
82.3498581618
100
AcDbArc
50
84.0000007163
51
96.0000007163
0
LINE
5
DF
100
AcDbEntity
8
lamp
6
ByLayer
62
256
370
-1
100
AcDbLine
10
-10.8035270883
20
83.6551395574
11
-17.1808045352
21
144.330874117
0
ARC
5
E0
100
AcDbEntity
8
lamp
6
ByLayer
62
256
370
-1
100
AcDbCircle
10
-15.1931991169
20
144.553616241
40
2.00004733766
100
AcDbArc
50
96.0000007163
51
186.394205351
0
ARC
5
E1
100
AcDbEntity
8
lamp
6
ByLayer
62
256
370
-1
100
AcDbCircle
10
-8.81696209918
20
83.8877807029
40
2.00014058472
100
AcDbArc
50
186.679327875
51
276.000000716
0
ARC
5
E2
100
AcDbEntity
8
lamp
6
ByLayer
62
256
370
-1
100
AcDbCircle
10
8.81696000182
20
83.8877809233
40
2
100
AcDbArc
50
264.000000716
51
354.000000716
0
LINE
5
E3
100
AcDbEntity
8
lamp-back
6
ByLayer
62
256
370
-1
100
AcDbLine
10
-17.1808045352
20
144.330874116
11
-10.8035270883
21
83.6551395574
0
LINE
5
E4
100
AcDbEntity
8
lamp-back
6
ByLayer
62
256
370
-1
100
AcDbLine
10
17.1822390126
20
144.344557022
11
10.8060039688
21
83.6787256735
0
ARC
5
E5
100
AcDbEntity
8
lamp-back
6
ByLayer
62
256
370
-1
100
AcDbCircle
10
0
20
0
40
82.3497175771
100
AcDbArc
50
84.000011711
51
96.0000007163
0
ARC
5
E6
100
AcDbEntity
8
lamp-back
6
ByLayer
62
256
370
-1
100
AcDbCircle
10
0
20
0
40
147.349858162
100
AcDbArc
50
84.0000007163
51
96.0000007163
0
ARC
5
E7
100
AcDbEntity
8
lamp-back
6
ByLayer
62
256
370
-1
100
AcDbCircle
10
8.81696000182
20
83.8877809233
40
2.00014058479
100
AcDbArc
50
263.99954804
51
353.999953135
0
ARC
5
E8
100
AcDbEntity
8
lamp-back
6
ByLayer
62
256
370
-1
100
AcDbCircle
10
-8.81696209918
20
83.8877807029
40
2.00014058472
100
AcDbArc
50
186.679327876
51
276.000000716
0
ARC
5
E9
100
AcDbEntity
8
lamp-back
6
ByLayer
62
256
370
-1
100
AcDbCircle
10
-15.1931991169
20
144.553616241
40
2.00004733766
100
AcDbArc
50
96.0000007163
51
186.394205351
0
ARC
5
EA
100
AcDbEntity
8
lamp-back
6
ByLayer
62
256
370
-1
100
AcDbCircle
10
15.1931955028
20
144.553616621
40
2
100
AcDbArc
50
354.000078417
51
84.0000007163
0
CIRCLE
5
EB
100
AcDbEntity
8
lamp-back
6
ByLayer
62
256
370
-1
100
AcDbCircle
10
-2.39471053077e-06
20
142.281918217
40
1.5
0
CIRCLE
5
EC
100
AcDbEntity
8
lamp-back
6
ByLayer
62
256
370
-1
100
AcDbCircle
10
-3.04904927084e-06
20
136.281918217
40
1.5
0
CIRCLE
5
ED
100
AcDbEntity
8
lamp-back
6
ByLayer
62
256
370
-1
100
AcDbCircle
10
-3.70338801091e-06
20
130.281918217
40
1.5
0
CIRCLE
5
EE
100
AcDbEntity
8
lamp-back
6
ByLayer
62
256
370
-1
100
AcDbCircle
10
-4.35772675098e-06
20
124.281918217
40
1.5
0
CIRCLE
5
EF
100
AcDbEntity
8
lamp-back
6
ByLayer
62
256
370
-1
100
AcDbCircle
10
-5.01206549105e-06
20
118.281918217
40
1.5
0
CIRCLE
5
F0
100
AcDbEntity
8
lamp-back
6
ByLayer
62
256
370
-1
100
AcDbCircle
10
-5.66640423112e-06
20
112.281918217
40
1.5
0
CIRCLE
5
F1
100
AcDbEntity
8
lamp-back
6
ByLayer
62
256
370
-1
100
AcDbCircle
10
-6.32074297119e-06
20
106.281918217
40
1.5
0
CIRCLE
5
F2
100
AcDbEntity
8
lamp-back
6
ByLayer
62
256
370
-1
100
AcDbCircle
10
-6.97508171126e-06
20
100.281918217
40
1.5
0
CIRCLE
5
F3
100
AcDbEntity
8
lamp-back
6
ByLayer
62
256
370
-1
100
AcDbCircle
10
-7.62942045132e-06
20
94.2819182168
40
1.5
0
CIRCLE
5
F4
100
AcDbEntity
8
lamp-back
6
ByLayer
62
256
370
-1
100
AcDbCircle
10
-8.28375919139e-06
20
88.2819182168
40
1.5
0
CIRCLE
5
F5
100
AcDbEntity
8
lamp-back
6
ByLayer
62
256
370
-1
100
AcDbCircle
10
5.99999727812
20
139.281915493
40
1.5
0
CIRCLE
5
F6
100
AcDbEntity
8
lamp-back
6
ByLayer
62
256
370
-1
100
AcDbCircle
10
5.99999662378
20
133.281917562
40
1.5
0
CIRCLE
5
F7
100
AcDbEntity
8
lamp-back
6
ByLayer
62
256
370
-1
100
AcDbCircle
10
5.99999596944
20
127.281919632
40
1.5
0
CIRCLE
5
F8
100
AcDbEntity
8
lamp-back
6
ByLayer
62
256
370
-1
100
AcDbCircle
10
5.9999953151
20
121.281921701
40
1.5
0
CIRCLE
5
F9
100
AcDbEntity
8
lamp-back
6
ByLayer
62
256
370
-1
100
AcDbCircle
10
5.99999466077
20
115.28192377
40
1.5
0
CIRCLE
5
FA
100
AcDbEntity
8
lamp-back
6
ByLayer
62
256
370
-1
100
AcDbCircle
10
5.99999400643
20
109.281925839
40
1.5
0
CIRCLE
5
FB
100
AcDbEntity
8
lamp-back
6
ByLayer
62
256
370
-1
100
AcDbCircle
10
5.99999335209
20
103.281927908
40
1.5
0
CIRCLE
5
FC
100
AcDbEntity
8
lamp-back
6
ByLayer
62
256
370
-1
100
AcDbCircle
10
5.99999269775
20
97.2819299768
40
1.5
0
CIRCLE
5
FD
100
AcDbEntity
8
lamp-back
6
ByLayer
62
256
370
-1
100
AcDbCircle
10
5.99999204341
20
91.2819320459
40
1.5
0
CIRCLE
5
FE
100
AcDbEntity
8
lamp-back
6
ByLayer
62
256
370
-1
100
AcDbCircle
10
5.99999138907
20
85.2819341149
40
1.5
0
CIRCLE
5
FF
100
AcDbEntity
8
lamp-back
6
ByLayer
62
256
370
-1
100
AcDbCircle
10
11.9999976053
20
142.281916908
40
1.5
0
CIRCLE
5
100
100
AcDbEntity
8
lamp-back
6
ByLayer
62
256
370
-1
100
AcDbCircle
10
11.999996951
20
136.281916908
40
1.5
0
CIRCLE
5
101
100
AcDbEntity
8
lamp-back
6
ByLayer
62
256
370
-1
100
AcDbCircle
10
11.9999962966
20
130.281916908
40
1.5
0
CIRCLE
5
102
100
AcDbEntity
8
lamp-back
6
ByLayer
62
256
370
-1
100
AcDbCircle
10
11.9999956423
20
124.281916908
40
1.5
0
CIRCLE
5
103
100
AcDbEntity
8
lamp-back
6
ByLayer
62
256
370
-1
100
AcDbCircle
10
11.9999949879
20
118.281916908
40
1.5
0
CIRCLE
5
104
100
AcDbEntity
8
lamp-back
6
ByLayer
62
256
370
-1
100
AcDbCircle
10
11.9999943336
20
112.281916908
40
1.5
0
CIRCLE
5
105
100
AcDbEntity
8
lamp-back
6
ByLayer
62
256
370
-1
100
AcDbCircle
10
-6.00000272188
20
139.281916802
40
1.5
0
CIRCLE
5
106
100
AcDbEntity
8
lamp-back
6
ByLayer
62
256
370
-1
100
AcDbCircle
10
-6.00000337622
20
133.281918871
40
1.5
0
CIRCLE
5
107
100
AcDbEntity
8
lamp-back
6
ByLayer
62
256
370
-1
100
AcDbCircle
10
-6.00000403056
20
127.28192094
40
1.5
0
CIRCLE
5
108
100
AcDbEntity
8
lamp-back
6
ByLayer
62
256
370
-1
100
AcDbCircle
10
-6.0000046849
20
121.281923009
40
1.5
0
CIRCLE
5
109
100
AcDbEntity
8
lamp-back
6
ByLayer
62
256
370
-1
100
AcDbCircle
10
-6.00000533923
20
115.281925078
40
1.5
0
CIRCLE
5
10A
100
AcDbEntity
8
lamp-back
6
ByLayer
62
256
370
-1
100
AcDbCircle
10
-6.00000599357
20
109.281927147
40
1.5
0
CIRCLE
5
10B
100
AcDbEntity
8
lamp-back
6
ByLayer
62
256
370
-1
100
AcDbCircle
10
-6.00000664791
20
103.281929216
40
1.5
0
CIRCLE
5
10C
100
AcDbEntity
8
lamp-back
6
ByLayer
62
256
370
-1
100
AcDbCircle
10
-6.00000730225
20
97.2819312855
40
1.5
0
CIRCLE
5
10D
100
AcDbEntity
8
lamp-back
6
ByLayer
62
256
370
-1
100
AcDbCircle
10
-6.00000795659
20
91.2819333545
40
1.5
0
CIRCLE
5
10E
100
AcDbEntity
8
lamp-back
6
ByLayer
62
256
370
-1
100
AcDbCircle
10
-6.00000861093
20
85.2819354236
40
1.5
0
CIRCLE
5
10F
100
AcDbEntity
8
lamp-back
6
ByLayer
62
256
370
-1
100
AcDbCircle
10
-12.0000023947
20
142.281919525
40
1.5
0
CIRCLE
5
110
100
AcDbEntity
8
lamp-back
6
ByLayer
62
256
370
-1
100
AcDbCircle
10
-12.000003049
20
136.281919525
40
1.5
0
CIRCLE
5
111
100
AcDbEntity
8
lamp-back
6
ByLayer
62
256
370
-1
100
AcDbCircle
10
-12.0000037034
20
130.281919525
40
1.5
0
CIRCLE
5
112
100
AcDbEntity
8
lamp-back
6
ByLayer
62
256
370
-1
100
AcDbCircle
10
-12.0000043577
20
124.281919525
40
1.5
0
CIRCLE
5
113
100
AcDbEntity
8
lamp-back
6
ByLayer
62
256
370
-1
100
AcDbCircle
10
-12.0000050121
20
118.281919525
40
1.5
0
CIRCLE
5
114
100
AcDbEntity
8
lamp-back
6
ByLayer
62
256
370
-1
100
AcDbCircle
10
-12.0000056664
20
112.281919525
40
1.5
0
ENDSEC
0
SECTION
2
OBJECTS
0
DICTIONARY
5
C
330
0
100
AcDbDictionary
281
1
3
ACAD_GROUP
350
D
0
DICTIONARY
5
D
330
C
100
AcDbDictionary
281
1
0
ENDSEC
0
EOF
